# xmcd CD database file
#
# Track frame offsets:
#	150
#	13739
#	27425
#	42389
#	55273
#	69280
#	82850
#	99387
#	117099
#	131853
#	146023
#	163557
#	176944
#	195226
#	213191
#
# Disc length: 3559 seconds
#
# Revision: 3
# Processed by: cddbd v1.4PL0 Copyright (c) Steve Scherf et al.
# Submitted via: CDex 1.50Beta5
#
DISCID=ca0de50f
DTITLE=Marvin Gaye - Command Performances-15 Greatest Hits
DYEAR=1983
DGENRE=Soul
TTITLE0=How Sweet It Is (To Be Loved By You)
TTITLE1=Ain't That Peculiar
TTITLE2=I Heard It Through The Grapevine
TTITLE3=You're All I Need To Get By (With Tammi Terrell)
TTITLE4=Your Precious Love (With Tammi Terrell)
TTITLE5=Too Busy Thinking About My Baby
TTITLE6=That's The Way Love Is
TTITLE7=What's Going On
TTITLE8=Mercy Mercy Me (The Ecology)
TTITLE9=Inner City Blues (Make Me Wanna Holler)
TTITLE10=Trouble Man
TTITLE11=My Mistake (Was To Love You) (With Diana Ross)
TTITLE12=Let's Get It On
TTITLE13=I Want You (Vocal)
TTITLE14=Got To Give It Up
EXTD=YEAR: 1983
EXTT0=
EXTT1=
EXTT2=
EXTT3=
EXTT4=
EXTT5=
EXTT6=
EXTT7=
EXTT8=
EXTT9=
EXTT10=
EXTT11=
EXTT12=
EXTT13=
EXTT14=
PLAYORDER=
